<svg width="773" height="168" viewBox="0 0 773 168" fill="none" xmlns="http://www.w3.org/2000/svg">
<path d="M505.077 2.01613C523.651 -1.59491 559.27 1.85604 567.726 7.96994V65.8578C566.239 65.3123 563.881 64.0269 561.413 62.3624C553.575 57.0755 544.586 53.9841 535.831 53.216C534.289 53.0502 532.717 52.9648 531.121 52.9648C510.944 52.9648 494.588 66.6201 494.588 83.4648C494.588 90.9351 497.806 97.7768 503.147 103.08C505.286 105.565 508.326 107.622 512.593 109.842C516.07 111.65 518.596 112.603 522.014 113.008C524.925 113.632 527.977 113.965 531.121 113.965C537.719 113.965 543.908 112.503 549.251 109.948C553.617 108.241 559.146 105.553 567.726 101.234V160.402L557.01 163.484C543.604 167.338 512.475 168.044 499.307 164.79C466.514 156.688 438.982 131.4 432.651 103.567C426.272 75.5191 432.936 49.9736 451.849 29.9755C466.068 14.9399 482.21 6.46254 505.077 2.01613Z" fill="black"/>
<path d="M297.209 4.50359C297.587 4.12605 324.852 3.98985 357.797 4.20252L417.699 4.58731H420.172V47.5053H360.82V62.3431H413.577V103.559H360.639V120.121L390.908 119.671L420.172 120.121V162.911H296.523V84.0509C296.523 40.6772 296.832 4.88219 297.209 4.50359Z" fill="black"/>
<path d="M589.021 4.50359C589.399 4.12605 603.679 3.96635 620.758 4.151L651.807 4.48588L653.455 68.7236L693.023 4.34581L728.881 4.4247C748.602 4.46757 765.201 4.93065 764.934 5.53078C764.667 6.13091 753.726 22.9703 739.792 43.0198C725.858 63.0718 714.218 80.4279 713.929 81.5908C713.639 82.7531 726.808 101.105 743.192 122.371C759.571 143.631 772.974 161.448 772.982 161.974C772.982 162.488 755.526 162.911 734.193 162.911H695.404L652.631 98.2221V162.911H588.334V84.0509C588.334 40.6777 588.642 4.88296 589.021 4.50359Z" fill="black"/>
<path fill-rule="evenodd" clip-rule="evenodd" d="M525.894 167.75C539.898 167.75 553.198 165.102 565.18 160.345L496.463 106.338L486.653 53.375L539.504 40.3919L565.18 7.40486C553.198 2.64792 539.898 0 525.894 0C473.156 0 430.403 37.5521 430.403 83.875C430.403 130.198 473.156 167.75 525.894 167.75Z" fill="black"/>
<path d="M285.807 4.56638V56.5729L250.361 57.5099V162.911H184.415V57.5099L148.969 56.5729L148.51 4.56638H285.807Z" fill="black"/>
<path d="M693.023 4.34581L728.881 4.4247C748.602 4.46757 765.201 4.93065 764.934 5.53078L765.8 4.34581H693.023Z" fill="black"/>
<path d="M73.9557 1.13546C88.4457 -0.979732 108.904 1.72472 128.828 8.38854C137.184 11.1842 144.591 14.0326 145.289 14.7223L126.801 57.27L117.144 52.4834C104.023 45.9813 87.9418 43.2472 81.3601 46.4024C69.5805 52.0474 77.4415 58.3301 102.783 63.5216C125.344 68.1445 138.145 76.0642 145.234 89.7809C149.718 98.4561 150.02 114.627 145.921 126.57C140.263 143.054 121.308 158.544 99.7271 164.319C73.2335 171.408 38.9502 167.374 7.71516 153.49L0 150.061L10.0336 128.244C15.5528 116.244 20.2638 106.174 20.5034 105.866C20.7425 105.561 27.3053 108.466 35.0885 112.323C47.145 118.296 51.1317 119.443 62.0094 120.07C73.5912 120.736 75.0854 120.464 78.0628 117.167L81.344 113.53L77.0292 109.819C74.4771 107.623 68.4245 105.295 62.2075 104.118C25.3734 97.1442 10.524 83.8119 10.552 57.7385C10.5635 47.5534 11.3808 43.6554 15.1067 36.0404C24.3771 17.0927 43.8746 5.52744 73.9557 1.13546Z" fill="black"/>
<path fill-rule="evenodd" clip-rule="evenodd" d="M43.2451 161.863L57.5958 119.628C64.6655 120.995 70.9247 120.996 74.4534 119.304C86.2329 113.659 78.372 107.377 53.0306 102.185L93.804 61.6264C130.493 68.6105 145.289 81.9417 145.262 107.968C145.25 118.153 144.433 122.051 140.707 129.666C131.436 148.614 111.939 160.179 81.8578 164.571C71.3125 166.111 57.6061 165.097 43.2451 161.863Z" fill="black"/>
</svg>
