<svg width="480" height="335" viewBox="0 0 480 335" fill="none" xmlns="http://www.w3.org/2000/svg">
<path fill-rule="evenodd" clip-rule="evenodd" d="M0 132.157V264.315H93.7294H187.459V169.279V74.2432H165.904H144.35V147.617V220.991L129.926 220.935L115.502 220.879L115.447 146.581L115.392 72.2837H93.8382H72.2844L72.2295 146.581L72.1749 220.879H58.6761H45.1773L45.1227 132.103L45.068 43.3267H262.464H479.86V21.6634V0H239.93H0V132.157ZM216.634 169.279V264.315H276.943H337.252V243.522V222.73H298.497H259.742V208.142V193.555H299.368H338.993V133.899V74.2432H277.813H216.634V169.279ZM364.467 169.279V264.315H399.63H434.794L434.738 279.719L434.682 295.122L218.321 295.177L1.9595 295.231V315.044V334.857H240.909H479.858L479.858 204.55L479.859 74.2432H422.163H364.467V169.279ZM259.742 134.77V151.97H276.943H294.143V134.77V117.57H276.943H259.742V134.77ZM407.723 119.455C407.642 119.536 407.576 142.806 407.576 171.166V222.73H421.184H434.792L434.737 171.075L434.682 119.421L421.276 119.364C413.902 119.334 407.803 119.374 407.723 119.455Z" fill="black"/>
</svg>
